<svg width="324" height="152" viewBox="0 0 324 152" fill="none" xmlns="http://www.w3.org/2000/svg">
<path fill-rule="evenodd" clip-rule="evenodd" d="M236.5 23C239.248 23 241.476 25.2099 241.476 27.9359V40.5491C244.188 42.2064 246 45.1798 246 48.5769C246 53.7811 241.747 58 236.5 58C231.253 58 227 53.7811 227 48.5769C227 45.1798 228.812 42.2064 231.524 40.5491V27.9359C231.524 25.2099 233.752 23 236.5 23ZM233.786 41.9193C231.133 42.9844 229.262 45.5639 229.262 48.5769C229.262 52.542 232.503 55.7564 236.5 55.7564C240.497 55.7564 243.738 52.542 243.738 48.5769C243.738 45.5639 241.867 42.9844 239.214 41.9193V27.9359C239.214 26.449 237.999 25.2436 236.5 25.2436C235.001 25.2436 233.786 26.449 233.786 27.9359V41.9193Z" fill="#231815"/>
<path fill-rule="evenodd" clip-rule="evenodd" d="M236.5 27.631C237.328 27.631 238 28.3026 238 29.131V42.689C240.588 43.3551 242.5 45.7043 242.5 48.5C242.5 51.8137 239.814 54.5 236.5 54.5C233.186 54.5 230.5 51.8137 230.5 48.5C230.5 45.7043 232.412 43.3551 235 42.689V29.131C235 28.3026 235.672 27.631 236.5 27.631Z" fill="#FFB900"/>
<path d="M9.6 109.9V43.852H50.688V51.532H17.856V74.188H47.04V81.964H17.856V109.9H9.6ZM80.7128 110.668C73.8648 110.668 68.9688 109.996 66.0248 108.652C63.0808 107.244 61.1928 104.908 60.3608 101.644C59.5928 98.316 59.2088 92.908 59.2088 85.42C59.2088 77.932 59.5928 72.556 60.3608 69.292C61.1928 65.964 63.0808 63.628 66.0248 62.284C68.9688 60.876 73.8648 60.172 80.7128 60.172C87.4968 60.172 92.3608 60.876 95.3048 62.284C98.2488 63.628 100.105 65.964 100.873 69.292C101.705 72.556 102.121 77.932 102.121 85.42C102.121 92.908 101.705 98.316 100.873 101.644C100.105 104.908 98.2488 107.244 95.3048 108.652C92.3608 109.996 87.4968 110.668 80.7128 110.668ZM80.7128 103.564C85.3848 103.564 88.6168 103.148 90.4088 102.316C92.2008 101.484 93.2888 99.98 93.6728 97.804C94.1208 95.564 94.3448 91.436 94.3448 85.42C94.3448 79.404 94.1208 75.308 93.6728 73.132C93.2888 70.892 92.2008 69.356 90.4088 68.524C88.6168 67.692 85.3848 67.276 80.7128 67.276C76.0408 67.276 72.7768 67.692 70.9208 68.524C69.1288 69.356 68.0088 70.892 67.5608 73.132C67.1768 75.308 66.9848 79.404 66.9848 85.42C66.9848 91.436 67.1768 95.564 67.5608 97.804C68.0088 99.98 69.1288 101.484 70.9208 102.316C72.7768 103.148 76.0408 103.564 80.7128 103.564ZM116.727 60.94H123.639L124.023 70.252H124.599C125.751 66.412 127.671 63.788 130.359 62.38C133.047 60.908 136.567 60.172 140.919 60.172V68.524C136.503 68.524 133.111 69.196 130.743 70.54C128.375 71.884 126.743 73.964 125.847 76.78C124.951 79.532 124.503 83.276 124.503 88.012V109.9H116.727V60.94ZM182.612 109.42C180.884 109.74 178.772 110.028 176.276 110.284C173.844 110.54 171.508 110.668 169.268 110.668C163.252 110.668 158.836 109.804 156.02 108.076C153.204 106.348 151.38 103.788 150.548 100.396C149.78 97.004 149.396 92.012 149.396 85.42C149.396 78.956 149.876 73.964 150.836 70.444C151.796 66.924 153.684 64.332 156.5 62.668C159.316 61.004 163.476 60.172 168.98 60.172C171.156 60.172 173.46 60.3 175.892 60.556C178.388 60.812 180.5 61.1 182.228 61.42V68.332C178.388 67.628 174.612 67.276 170.9 67.276C166.804 67.276 163.796 67.756 161.876 68.716C160.02 69.676 158.772 71.372 158.132 73.804C157.492 76.236 157.172 80.108 157.172 85.42C157.172 90.796 157.492 94.732 158.132 97.228C158.836 99.66 160.116 101.324 161.972 102.22C163.892 103.116 166.964 103.564 171.188 103.564C174.324 103.564 178.132 103.244 182.612 102.604V109.42ZM266.639 110.668C264.015 110.668 261.039 110.54 257.711 110.284C254.383 110.028 251.439 109.74 248.879 109.42V102.508C255.215 103.212 261.007 103.564 266.255 103.564C269.519 103.564 271.919 103.34 273.455 102.892C274.991 102.444 275.983 101.74 276.431 100.78C276.943 99.756 277.199 98.252 277.199 96.268C277.199 94.284 277.007 92.876 276.623 92.044C276.303 91.148 275.759 90.54 274.991 90.22C274.223 89.9 272.879 89.644 270.959 89.452L258.191 88.012C255.247 87.692 252.975 87.02 251.375 85.996C249.839 84.972 248.783 83.564 248.207 81.772C247.631 79.98 247.343 77.58 247.343 74.572C247.343 70.412 248.079 67.308 249.551 65.26C251.087 63.148 253.167 61.772 255.791 61.132C258.479 60.492 262.063 60.172 266.543 60.172C269.039 60.172 271.727 60.3 274.607 60.556C277.487 60.812 279.919 61.132 281.903 61.516V68.428C276.911 67.66 271.759 67.276 266.447 67.276C263.503 67.276 261.263 67.436 259.727 67.756C258.191 68.012 257.007 68.652 256.174 69.676C255.343 70.636 254.927 72.172 254.927 74.284C254.927 76.14 255.087 77.484 255.407 78.316C255.727 79.148 256.271 79.724 257.039 80.044C257.807 80.364 259.087 80.62 260.879 80.812L274.127 82.348C276.943 82.668 279.055 83.212 280.463 83.98C281.935 84.684 282.991 85.964 283.631 87.82C284.335 89.676 284.687 92.428 284.687 96.076C284.687 100.108 284.015 103.18 282.671 105.292C281.391 107.404 279.471 108.844 276.911 109.612C274.415 110.316 270.991 110.668 266.639 110.668ZM301.884 109.9V68.044H291.996V60.94H301.884V46.732H309.66V60.94H321.372V68.044H309.66V109.9H301.884Z" fill="#143642"/>
<path d="M208.721 110.668C203.089 110.668 198.993 109.644 196.433 107.596C193.873 105.484 192.593 101.772 192.593 96.46C192.593 92.684 193.041 89.74 193.937 87.628C194.833 85.516 196.337 83.98 198.449 83.02C200.625 82.06 203.665 81.58 207.569 81.58C209.425 81.58 215.537 81.74 225.905 82.06V79.18C225.905 75.34 225.521 72.62 224.753 71.02C224.049 69.42 222.705 68.396 220.721 67.948C218.801 67.5 215.505 67.276 210.833 67.276C208.785 67.276 206.193 67.404 203.057 67.66C199.985 67.852 197.585 68.076 195.857 68.332V61.516C200.913 60.62 206.833 60.172 213.617 60.172C219.377 60.172 223.665 60.78 226.481 61.996C229.361 63.148 231.281 65.068 232.241 67.756C233.201 70.38 233.681 74.22 233.681 79.276V109.9H226.673L226.289 103.084H225.713C224.369 106.156 222.193 108.204 219.185 109.228C216.241 110.188 212.753 110.668 208.721 110.668ZM211.697 103.66C214.897 103.66 217.489 103.372 219.473 102.796C221.521 102.22 222.993 101.1 223.889 99.436C225.233 97.132 225.905 93.932 225.905 89.836V87.628H209.585C206.897 87.628 204.913 87.82 203.633 88.204C202.417 88.588 201.553 89.356 201.041 90.508C200.529 91.596 200.273 93.324 200.273 95.692C200.273 97.996 200.561 99.692 201.137 100.78C201.713 101.868 202.769 102.636 204.305 103.084C205.905 103.468 208.369 103.66 211.697 103.66Z" fill="#EC9A29"/>
</svg>
